<?xml version="1.0" standalone="no"?>
<!DOCTYPE svg PUBLIC "-//W3C//DTD SVG 20010904//EN"
 "http://www.w3.org/TR/2001/REC-SVG-20010904/DTD/svg10.dtd">
<svg version="1.0" xmlns="http://www.w3.org/2000/svg"
 width="512.000000pt" height="512.000000pt" viewBox="0 0 512.000000 512.000000"
 preserveAspectRatio="xMidYMid meet">

<g transform="translate(0.000000,512.000000) scale(0.100000,-0.100000)"
fill="#000000" stroke="none">
<path d="M4410 5102 c-97 -85 -261 -189 -350 -223 -47 -17 -94 -35 -105 -40
-11 -4 -49 -16 -85 -25 -72 -19 -126 -42 -182 -75 -21 -13 -40 -20 -44 -17
-10 11 26 55 61 74 38 20 45 38 18 49 -37 14 -475 18 -588 4 -60 -7 -204 -13
-320 -13 -193 0 -275 7 -410 34 -56 11 -268 47 -359 61 -33 5 -78 14 -100 21
-24 6 -125 11 -241 11 -167 1 -210 -2 -260 -17 -135 -42 -228 -81 -291 -122
-102 -67 -187 -151 -116 -115 9 5 35 17 57 26 22 10 48 22 57 26 9 5 56 16
104 26 82 16 94 16 211 -1 68 -9 132 -21 141 -25 21 -11 116 -35 244 -60 100
-20 118 -26 118 -41 0 -9 -72 -32 -175 -55 -38 -9 -97 -22 -130 -30 -178 -41
-544 -55 -710 -26 -88 15 -241 63 -294 93 -18 10 -38 17 -43 16 -19 -7 164
-167 255 -223 85 -54 223 -115 257 -115 9 0 21 -5 26 -10 13 -13 90 -27 212
-39 52 -5 96 -12 99 -15 4 -3 4 -6 1 -6 -3 0 -43 -6 -89 -14 -46 -8 -131 -17
-189 -21 -281 -17 -440 -76 -585 -220 -90 -88 -119 -125 -172 -218 -93 -161
-98 -200 -15 -111 110 118 178 154 332 180 47 7 150 14 230 14 l145 0 -59 -36
c-54 -32 -174 -119 -186 -134 -13 -17 -231 -187 -278 -217 -89 -58 -180 -101
-255 -124 -40 -11 -86 -25 -103 -30 -17 -5 -55 -9 -85 -10 -111 -2 -113 -12
-9 -46 200 -65 354 -79 505 -44 94 22 202 62 262 97 49 28 61 19 33 -28 -11
-19 -36 -81 -56 -138 -38 -112 -41 -121 -73 -245 -12 -44 -25 -89 -30 -100 -5
-11 -18 -46 -29 -77 -40 -116 -110 -227 -201 -317 -47 -47 -103 -95 -124 -106
-46 -24 -47 -35 -3 -35 37 0 182 45 206 63 8 7 31 21 50 31 19 11 60 41 91 67
31 27 59 46 63 42 3 -3 6 -29 6 -57 0 -139 47 -512 81 -651 16 -62 91 -299 98
-310 4 -5 13 -28 20 -50 45 -132 203 -417 306 -549 194 -250 376 -418 612
-564 223 -138 523 -246 741 -267 39 -4 75 -11 78 -16 7 -12 371 -12 378 0 3 4
38 12 77 15 278 28 607 162 884 361 98 70 124 93 261 229 113 114 154 162 249
295 96 134 231 379 222 403 -3 9 -7 6 -13 -7 -4 -11 -11 -22 -14 -25 -4 -3
-33 -46 -64 -97 -168 -273 -433 -539 -691 -692 -38 -23 -77 -46 -85 -51 -17
-11 -91 -47 -160 -77 -68 -31 -169 -64 -315 -103 -199 -54 -617 -52 -810 4
-27 8 -88 26 -135 39 -82 24 -127 42 -275 112 -65 31 -226 132 -287 179 -14
12 -41 32 -60 46 -64 47 -268 255 -268 273 0 16 2 17 15 3 44 -44 349 -246
372 -246 2 0 37 -16 76 -36 89 -45 266 -109 372 -135 261 -64 333 -75 570 -85
193 -8 200 -6 180 73 -7 26 -25 74 -39 105 -14 31 -30 68 -35 81 -8 19 -73
122 -141 222 -45 65 -137 169 -340 385 -327 347 -457 505 -567 690 -50 85
-133 242 -133 253 0 4 -11 30 -24 59 -29 62 -49 121 -66 198 -7 30 -16 64 -20
75 -38 98 -71 494 -51 615 8 54 9 54 10 13 0 -23 8 -68 16 -100 8 -31 15 -73
15 -92 0 -19 4 -48 9 -65 5 -17 15 -62 21 -101 15 -90 39 -194 50 -220 5 -11
21 -56 35 -100 118 -359 379 -715 704 -961 99 -75 124 -82 91 -26 -57 94 -71
127 -110 242 -35 106 -42 143 -52 269 -18 235 5 454 61 586 5 11 18 44 30 74
12 30 40 84 62 120 49 79 194 225 264 265 28 16 53 33 56 38 3 5 7 55 7 111 1
94 13 163 42 245 7 17 15 32 18 32 4 0 7 -62 7 -137 0 -148 11 -214 51 -301
13 -29 24 -55 24 -58 0 -13 71 -114 114 -161 95 -105 284 -203 392 -203 92 0
181 -67 329 -249 72 -88 131 -132 226 -170 67 -26 79 -47 79 -134 0 -113 26
-160 110 -200 57 -28 168 -30 220 -5 115 54 156 68 203 68 46 0 54 3 92 43 51
53 62 93 70 247 3 63 10 119 15 124 13 13 13 81 1 104 -5 9 -22 44 -37 77 -15
33 -48 94 -72 135 -66 111 -148 264 -290 545 -109 213 -157 319 -171 373 -21
82 -31 146 -31 198 0 60 -9 75 -170 294 -39 52 -109 149 -156 214 -47 65 -92
125 -99 132 -16 17 -39 18 -66 4 -13 -7 -19 -7 -19 0 0 5 4 10 9 10 10 0 47
30 122 98 36 33 63 74 111 168 35 69 82 148 104 176 59 72 115 255 64 210z"/>
<path d="M4451 4840 c-36 -22 -72 -40 -81 -40 -23 0 -43 -26 -64 -80 -10 -24
-42 -82 -72 -127 -29 -46 -49 -83 -44 -83 20 0 89 50 129 92 154 164 239 280
204 278 -5 -1 -37 -19 -72 -40z"/>
<path d="M4867 1355 c-4 -8 -2 -17 3 -20 6 -4 10 3 10 14 0 25 -6 27 -13 6z"/>
</g>
</svg>
